<svg xmlns="http://www.w3.org/2000/svg" width="513" height="513" viewBox="0 0 513 513" version="1.1">
	<path d="M -0 256.498 L -0 513.004 256.750 512.752 L 513.500 512.500 513.752 256.258 L 514.004 0.015 257.002 0.004 L 0 -0.008 -0 256.498 M 0.492 257 C 0.492 398.075, 0.608 455.788, 0.750 385.250 C 0.892 314.713, 0.892 199.288, 0.750 128.750 C 0.608 58.213, 0.492 115.925, 0.492 257 M 98.670 70.664 C 98.301 71.032, 98 93.308, 98 120.167 L 98 169 146.500 169 L 195 169 195 306 L 195 443 256.500 443 L 318 443 318 306 L 318 169 366.509 169 L 415.019 169 414.759 119.750 L 414.500 70.500 256.920 70.247 C 170.251 70.108, 99.038 70.295, 98.670 70.664" stroke="none" fill="black" fill-rule="evenodd"/>
</svg>